<?xml version="1.0" encoding="UTF-8"?>
<svg width="512pt" height="512pt" version="1.1" viewBox="0 0 512 512" xmlns="http://www.w3.org/2000/svg">
 <path d="m418.24 375.28h21.281v21.281h-21.281z" fill="#fff"/>
 <path d="m415.6 255.28h21.281v21.281h-21.281z" fill="#fff"/>
 <path d="m35.039 317.32v75.5c0 12.66 6.1602 24.359 15.781 31.559 6.6211 5.1211 14.922 8.1211 23.898 8.1211h362.44c21.66 0.078125 39.699-17.922 39.68-39.68-0.73828-29.762 0.51953-91.039 0-120.08v-22.16c0-21.859-17.84-39.68-39.68-39.68h-207.64c-37.398-0.10156-116.94 0.058594-154.78 0-21.859 0-39.68 17.84-39.68 39.68 0.058594 19.801-0.039062 46.922 0 66.738zm81.879 81.176c0.019531 4.2383-3.5195 7.9219-7.8789 7.8789h-36.762c-4.3398 0-7.8789-3.5586-7.8789-7.8789v-36.762c-0.019532-4.3789 3.5391-7.8594 7.8789-7.8789h36.762c4.3398 0 7.8789 3.5586 7.8789 7.8789zm335.78-36.762v36.762c0 4.3398-3.5586 7.8789-7.8789 7.8789h-36.762c-4.3594 0.019531-7.8984-3.6406-7.8789-7.8789v-36.762c0-4.3398 3.5391-7.8789 7.8789-7.8789h36.762c0.16016 0 0.32031 0 0.48047 0.078125 4.1016 0.16016 7.418 3.6211 7.418 7.8203zm-55.141-118.34c0.019531-4.3008 3.5195-7.9219 7.8789-7.8789h36.762c4.4219 0 7.8789 3.4805 7.8789 7.8789v36.762c-0.039063 4.3008-3.5586 7.9414-7.8789 7.8789h-36.762c-4.3398 0-7.8789-3.5586-7.8789-7.8789zm0 59.961c0-4.4219 3.5586-7.8789 7.8789-7.8789h36.762c4.3008 0 7.9219 3.3594 7.8789 7.8789v36.762c0.019531 4.3789-3.6211 7.8984-7.8789 7.8789h-36.762c-4.3398 0-7.8789-3.5586-7.8789-7.8789zm-67.137-59.961c0.019531-4.3008 3.5195-7.9219 7.8789-7.8789h36.762c4.0195 0 7.3398 3 7.8203 6.9414 0.078126 0.32031 0.078126 0.64062 0.078126 0.94141v36.762c0 4.3398-3.5391 7.8789-7.8789 7.8789h-36.762c-4.3398 0-7.8789-3.5586-7.8789-7.8789v-36.762zm0 59.961c0-4.4219 3.5586-7.8789 7.8789-7.8789h36.762c4.3398 0 7.8789 3.4805 7.8789 7.8789v36.762c0 4.3398-3.5391 7.8789-7.8789 7.8789h-36.762c-4.3398 0-7.8789-3.5586-7.8789-7.8789zm-67.137-59.961c0.019532-4.3008 3.5195-7.9219 7.8789-7.8789h36.762c4.3594-0.019531 7.8594 3.6016 7.8789 7.8789v36.762c0 4.3398-3.5586 7.8789-7.8789 7.8789h-36.762c-4.3398 0-7.8789-3.5586-7.8789-7.8789zm0 59.961c0-4.4219 3.5586-7.8789 7.8789-7.8789h36.762c4.3398 0 7.8789 3.4805 7.8789 7.8789v36.762c0 4.3398-3.5586 7.8789-7.8789 7.8789h-36.762c-4.3398 0-7.8789-3.5586-7.8789-7.8789zm-67.137-59.961c0.039062-4.3008 3.4414-7.9219 7.8789-7.8789h36.762c4.3789-0.019531 7.8594 3.6016 7.8789 7.8789v36.762c0 4.3398-3.5586 7.8789-7.8789 7.8789h-36.762c-4.4219 0-7.8789-3.5586-7.8789-7.8789zm0 59.961c0-4.4219 3.4805-7.8789 7.8789-7.8789h36.762c4.3398 0 7.8789 3.4805 7.8789 7.8789v36.762c0 4.3398-3.5586 7.8789-7.8789 7.8789h-36.762c-4.4219 0-7.8789-3.5586-7.8789-7.8789zm174.9 52.379c4.4219 0 7.8789 3.5586 7.8789 7.8789v32.98c0.019531 4.3203-3.4805 7.8984-7.8789 7.8789h-227.6c-4.3984 0-7.9219-3.5781-7.8789-7.8789v-32.98c0-4.3398 3.4805-7.8789 7.8789-7.8789zm-242.12-112.34c0.019531-4.3008 3.5195-7.9219 7.8789-7.8789h36.762c4.4609-0.019531 7.8594 3.6016 7.8789 7.8789v36.762c0 4.3398-3.4805 7.8789-7.8789 7.8789h-36.762c-4.3398 0-7.8789-3.5586-7.8789-7.8789zm0 59.961c0-4.4219 3.5391-7.8789 7.8789-7.8789h36.762c4.4219 0 7.8789 3.4805 7.8789 7.8789v36.762c0 4.3398-3.4805 7.8789-7.8789 7.8789h-36.762c-4.3398 0-7.8789-3.5586-7.8789-7.8789zm-12 0v36.762c0 4.3398-3.5586 7.8789-7.8789 7.8789h-36.762c-4.3398-0.019532-7.8984-3.5-7.8789-7.8789v-35.18c-0.62109-4.8984 2.8203-9.5391 7.8789-9.4609h36.762c4.3398 0 7.8789 3.4805 7.8789 7.8789zm-55.141-59.961c0-4.4219 3.5586-7.8789 7.8789-7.8789h36.762c4.4609-0.019531 7.8594 3.6016 7.8789 7.8789v36.762c0 4.3398-3.4805 7.8789-7.8789 7.8789h-36.762c-4.9219 0.039063-5.6211-3.3984-7.8789-7.8789z" fill="#fff"/>
 <path d="m476.84 440.4v-8.9219c-4.4609 4.8008-10.121 8.5391-15.941 11.441-7.1797 3.4805-15.219 5.3594-23.738 5.3594h-362.44c-8.5195 0-16.559-1.8984-23.738-5.3594-5.8203-2.8984-11.5-6.6406-15.941-11.441v8.9219c0 21.859 17.84 39.602 39.68 39.602h362.44c21.859 0 39.68-17.762 39.68-39.602z" fill="#fff"/>
 <path d="m151.32 371.52h211.82v17.199h-211.82z" fill="#fff"/>
 <path d="m77.559 251.3h20.98v20.98h-20.98z" fill="#fff"/>
 <path d="m80.16 311.24h20.98v20.98h-20.98z" fill="#fff"/>
 <path d="m80.16 369.62h20.98v20.98h-20.98z" fill="#fff"/>
 <path d="m144.7 251.3h20.98v20.98h-20.98z" fill="#fff"/>
 <path d="m211.92 251.3h20.98v20.98h-20.98z" fill="#fff"/>
 <path d="m279.06 251.3h20.98v20.98h-20.98z" fill="#fff"/>
 <path d="m346.2 251.3h20.98v20.98h-20.98z" fill="#fff"/>
 <path d="m144.7 311.24h20.98v20.98h-20.98z" fill="#fff"/>
 <path d="m413.32 311.24h20.98v20.98h-20.98z" fill="#fff"/>
 <path d="m346.2 311.24h20.98v20.98h-20.98z" fill="#fff"/>
 <path d="m279.06 311.24h20.98v20.98h-20.98z" fill="#fff"/>
 <path d="m211.92 311.24h20.98v20.98h-20.98z" fill="#fff"/>
 <path d="m218.04 146.62h108.66c16.301 0 29.559-13.262 29.559-29.559 0-7.6016 6.1797-13.781 13.781-13.781 17.16 1.2383 32.219-12.219 32.141-29.559v-33.961c-0.21875-10.34-15.559-10.422-15.781 0v33.961c0 7.6016-6.1797 13.781-13.781 13.781-17.16-1.2383-32.219 12.219-32.141 29.559 0 7.6016-6.1797 13.781-13.781 13.781h-108.66c-16.301 0-29.559 13.262-29.559 29.559v11.84h-5.8984c-12.238-0.10156-20.719 11.102-19.32 22.879 9.9219-0.019532 40.059 0.019531 50.5 0h15.781c1.3984-11.801-7.0781-22.961-19.32-22.879h-5.9414v-11.84c0-7.6016 6.1797-13.781 13.781-13.781z" fill="#fff"/>
</svg>
